<?xml version="1.0" standalone="no"?>
<!DOCTYPE svg PUBLIC "-//W3C//DTD SVG 20010904//EN"
 "http://www.w3.org/TR/2001/REC-SVG-20010904/DTD/svg10.dtd">
<svg version="1.0" xmlns="http://www.w3.org/2000/svg"
 width="299.000000pt" height="299.000000pt" viewBox="0 0 299.000000 299.000000"
 preserveAspectRatio="xMidYMid meet">
<metadata>
Created by potrace 1.11, written by Peter Selinger 2001-2013
</metadata>
<g transform="translate(0.000000,299.000000) scale(0.100000,-0.100000)"
fill="#000000" stroke="none">
<path d="M1368 2985 c-2 -1 -23 -5 -48 -8 -25 -4 -54 -8 -65 -10 -11 -3 -38
-8 -59 -11 -73 -14 -242 -74 -327 -116 -430 -217 -770 -670 -836 -1115 -2 -16
-6 -37 -9 -45 -3 -8 -8 -82 -11 -165 -4 -128 -2 -165 16 -253 42 -204 134
-439 223 -571 227 -336 512 -541 908 -651 102 -28 163 -35 310 -35 248 1 433
35 603 112 397 180 692 500 832 903 67 192 75 254 71 525 -3 223 -5 247 -29
332 -89 313 -200 501 -425 721 -177 173 -389 287 -646 346 -62 15 -85 19 -161
33 -33 5 -341 13 -347 8z m302 -337 c66 -143 97 -308 79 -417 -14 -83 -20
-103 -43 -171 l-24 -68 44 -22 c212 -110 358 -419 286 -607 -58 -153 -164
-256 -297 -292 -54 -14 -172 -23 -323 -23 -111 -1 -134 2 -179 22 -163 70
-233 310 -157 537 23 68 39 97 103 188 33 48 54 88 52 100 -1 11 -23 67 -48
125 -69 160 -74 185 -75 338 0 143 8 240 24 282 9 24 10 23 73 -44 87 -91 143
-190 161 -286 3 -14 7 -32 9 -40 6 -21 20 -110 30 -190 6 -50 24 -120 30 -120
2 0 27 5 55 11 l52 11 -6 57 c-4 31 -10 83 -15 116 -13 93 -13 268 0 337 20
103 85 218 125 218 9 0 27 -25 44 -62z m-180 -77 c0 -5 -5 -43 -10 -83 -6 -40
-12 -106 -14 -147 -5 -80 -8 -85 -48 -95 -33 -7 -34 -6 -59 91 -21 80 -52 156
-75 183 -21 24 -3 39 56 46 30 3 56 7 57 8 9 8 93 5 93 -3z m389 -47 c173 -58
276 -126 424 -278 138 -142 220 -285 268 -466 20 -74 23 -109 22 -270 0 -136
-4 -203 -16 -252 -19 -78 -74 -225 -87 -233 -5 -3 -24 2 -41 11 -43 22 -130
15 -194 -16 -27 -13 -96 -50 -153 -83 -102 -58 -172 -81 -172 -58 0 6 5 11 10
11 18 0 108 90 160 160 59 79 103 170 126 260 18 70 25 252 11 330 -37 226
-184 424 -392 529 l-70 36 5 65 c4 56 -8 174 -23 220 -3 8 -8 27 -11 43 -8 36
2 35 133 -9z m-818 -106 c2 -110 8 -184 20 -240 l12 -59 -62 -56 c-189 -170
-278 -415 -246 -668 9 -71 55 -201 99 -279 36 -64 153 -195 206 -230 24 -16
23 -16 -40 -17 -36 0 -87 -2 -115 -4 -27 -2 -86 -6 -130 -9 -44 -3 -101 -8
-127 -11 -43 -5 -48 -2 -73 27 -64 76 -163 320 -180 443 -12 87 -6 279 11 361
23 113 77 271 114 334 46 78 131 187 192 247 54 53 283 213 306 213 8 0 12
-18 13 -52z m659 -1386 c0 -17 -26 -32 -56 -32 -49 0 -50 17 -2 28 58 13 58
13 58 4z m105 -234 c20 -97 35 -187 33 -199 -3 -26 -30 -36 -123 -46 -68 -8
-407 -7 -445 0 -14 3 -38 6 -54 6 -27 1 -28 2 -22 44 8 63 15 116 21 177 11
105 25 203 31 209 2 2 21 -8 41 -22 50 -34 92 -49 118 -43 11 3 40 23 65 45
43 39 45 39 77 25 116 -50 101 -48 145 -19 21 14 42 33 45 43 11 27 28 -27 68
-220z m641 191 c95 -66 153 -126 168 -176 7 -22 4 -21 -94 13 l-101 35 -39
-22 c-43 -24 -62 -58 -124 -213 -20 -50 -40 -94 -45 -99 -13 -13 -51 10 -51
31 0 20 98 280 135 360 14 29 25 55 25 58 0 16 35 54 49 54 10 0 44 -18 77
-41z m-161 -26 c-48 -130 -56 -144 -84 -141 -14 1 -30 5 -36 9 -5 4 -27 11
-47 17 -46 13 -50 8 -82 -86 l-24 -71 21 -13 c12 -8 41 -22 65 -32 47 -21 50
-28 22 -56 -19 -19 -20 -19 -82 10 -36 17 -84 31 -112 32 l-49 3 -12 50 c-20
79 -28 135 -18 136 114 9 140 19 270 102 108 68 172 100 182 91 2 -2 -4 -25
-14 -51z m-829 35 c2 -3 -11 -13 -30 -22 -40 -19 -76 -14 -101 14 -16 18 -14
18 55 15 39 -1 73 -5 76 -7z m378 -90 c3 -16 2 -28 -3 -28 -10 0 -21 34 -21
65 1 16 2 17 9 5 5 -8 11 -27 15 -42z m-634 -8 c0 -5 -5 -10 -11 -10 -5 0 -7
5 -4 10 3 6 8 10 11 10 2 0 4 -4 4 -10z m-29 -79 c7 -1 5 -40 -6 -139 l-7 -53
-247 1 c-235 1 -312 7 -332 27 -13 13 -19 91 -9 118 11 30 32 35 195 42 77 3
141 6 142 7 2 1 254 -2 264 -3z m979 -15 c0 -2 -16 -6 -35 -8 -19 -2 -35 0
-35 4 0 4 16 8 35 8 19 0 35 -2 35 -4z m60 -36 c0 -10 -49 -25 -114 -35 -60
-9 -33 8 42 26 37 9 68 17 70 18 1 0 2 -3 2 -9z m-80 -60 c-8 -5 -24 -10 -35
-10 -17 0 -17 2 -5 10 8 5 24 10 35 10 17 0 17 -2 5 -10z m35 -19 c-6 -4 -23
-11 -40 -14 l-30 -6 30 14 c35 16 54 19 40 6z m130 -80 c-3 -6 -11 -11 -17
-11 -6 0 -6 6 2 15 14 17 26 13 15 -4z m-236 -47 c8 -8 -34 -34 -124 -79 -103
-51 -121 -54 -131 -22 -4 12 -11 25 -17 28 -18 12 2 39 33 46 17 3 39 16 48
28 10 13 27 25 38 27 17 4 144 -19 153 -28z m-946 17 c31 -1 39 -6 47 -26 10
-27 28 -37 69 -40 27 -1 28 -6 3 -43 -32 -50 -69 -45 -206 24 -39 20 -87 46
-106 58 l-35 21 60 5 c33 3 76 4 95 3 19 -1 52 -2 73 -2z m1309 -32 c40 -15
56 -25 49 -32 -11 -11 -206 -16 -216 -5 -12 12 5 45 28 56 28 14 65 9 139 -19z
m-997 -44 c11 -2 28 -4 38 -4 16 -1 18 -9 16 -68 -3 -96 -6 -101 -52 -114 -46
-12 -176 -10 -194 4 -33 24 -3 107 61 174 20 21 43 23 131 8z m323 -16 c23
-14 43 -65 37 -96 -2 -10 -4 -27 -4 -38 -1 -20 -7 -21 -107 -20 -96 1 -108 3
-124 22 -19 24 -36 121 -23 133 23 22 186 21 221 -1z"/>
<path d="M1791 1552 c-15 -28 -14 -54 3 -78 12 -15 17 -16 27 -7 16 16 14 73
-4 91 -13 13 -16 12 -26 -6z"/>
<path d="M1206 1438 c-8 -32 -7 -61 3 -77 15 -23 41 5 41 43 0 50 -33 75 -44
34z"/>
<path d="M1590 1220 c-8 -5 -36 -10 -62 -10 -27 0 -48 -4 -48 -10 0 -5 7 -10
15 -10 19 0 19 -14 0 -30 -25 -21 -5 -31 28 -13 18 9 50 17 72 18 69 4 71 5
41 22 -28 15 -29 16 -11 29 18 14 18 14 -1 14 -10 0 -26 -5 -34 -10z"/>
<path d="M1526 974 c-21 -21 -20 -37 5 -60 24 -22 52 -10 57 25 7 43 -32 65
-62 35z m39 -23 c7 -12 -12 -24 -25 -16 -11 7 -4 25 10 25 5 0 11 -4 15 -9z"/>
<path d="M655 787 c-41 -22 -46 -60 -15 -100 40 -51 114 -45 121 8 10 68 -53
122 -106 92z m80 -60 c8 -24 6 -31 -9 -43 -16 -11 -23 -11 -47 2 -29 15 -34
28 -23 59 5 11 16 15 38 13 23 -2 33 -10 41 -31z"/>
</g>
</svg>
